<svg width="137" height="137" viewBox="0 0 137 137" xmlns="http://www.w3.org/2000/svg">
<style>
  path { fill: #394b39; }
  @media (prefers-color-scheme: dark) {
    path { fill: #F0E8E2; }
  }
</style>
<path d="M70.0108 42.7023C50.6286 50.8645 40.9375 60.8154 40.9375 72.5548C40.9375 75.8802 41.6297 79.004 43.0142 81.9263C44.3986 84.7982 46.3269 87.2922 48.7992 89.4083C51.2714 91.5748 54.1392 93.2627 57.4025 94.4719C60.7153 95.6811 64.2753 96.2857 68.0825 96.2857C72.2358 96.2857 76.1667 95.6307 79.875 94.3207C83.6328 93.0611 86.9456 91.2977 89.8133 89.0304C92.6811 86.8135 94.9308 84.2691 96.5625 81.3972C98.1942 78.475 99.01 75.3763 99.01 72.1014C99.01 68.3226 98.0458 65.0224 96.1175 62.2009C94.2386 59.329 91.5933 57.1121 88.1817 55.5502C84.8194 53.9379 80.8886 53.1318 76.3892 53.1318C73.0764 53.1318 69.9367 53.6104 66.97 54.5677C64.0033 55.525 61.4075 56.8602 59.1825 58.5733C56.9575 60.2863 55.2022 62.2513 53.9167 64.4682C52.6311 66.6851 51.9883 69.0531 51.9883 71.5723C51.9883 74.2427 52.7794 76.6108 54.3617 78.6765C55.9439 80.7422 58.1194 82.3797 60.8883 83.5889C63.7067 84.7478 66.8958 85.3272 70.4558 85.3272C73.7686 85.3272 76.6611 84.8233 79.1333 83.8157C81.655 82.7576 83.6081 81.2965 84.9925 79.4323C86.4264 77.568 87.1433 75.4519 87.1433 73.0839C87.1433 70.0608 86.0308 67.6424 83.8058 65.8286C81.6303 63.9644 78.7131 63.0323 75.0542 63.0323C71.6919 63.0323 68.8983 63.7376 66.6733 65.1484C64.4978 66.5088 63.41 68.2722 63.41 70.4387C63.41 71.5975 63.6819 72.6052 64.2258 73.4618C64.7697 74.3183 65.5114 74.8977 66.4508 75.2L66.1542 75.4267C65.2147 75.1244 64.4483 74.545 63.855 73.6885C63.2617 72.7816 62.965 71.7487 62.965 70.5899C62.965 68.2722 64.0775 66.3576 66.3025 64.8461C68.5769 63.3346 71.4447 62.5788 74.9058 62.5788C78.7131 62.5788 81.7786 63.5613 84.1025 65.5263C86.4758 67.4409 87.6625 69.9601 87.6625 73.0839C87.6625 75.5527 86.9208 77.7444 85.4375 79.659C84.0036 81.5736 81.9764 83.0599 79.3558 84.118C76.7353 85.2264 73.7192 85.7807 70.3075 85.7807C66.6486 85.7807 63.41 85.176 60.5917 83.9668C57.7733 82.7576 55.5483 81.0949 53.9167 78.9788C52.3344 76.8123 51.5433 74.3435 51.5433 71.5723C51.5433 68.9524 52.1614 66.5088 53.3975 64.2415C54.6831 61.9742 56.4383 59.984 58.6633 58.271C60.9378 56.5075 63.5583 55.1472 66.525 54.1899C69.4917 53.1822 72.6808 52.6783 76.0925 52.6783C80.6414 52.6783 84.6711 53.5097 88.1817 55.1724C91.6922 56.7846 94.4364 59.0519 96.4142 61.9742C98.4414 64.8461 99.455 68.1462 99.455 71.8747C99.455 75.3512 98.565 78.6765 96.785 81.8507C95.005 84.9745 92.5575 87.7456 89.4425 90.1641C86.3769 92.5825 82.8417 94.4971 78.8367 95.9078C74.8811 97.3186 70.7031 98.024 66.3025 98.024C62.0503 98.024 58.07 97.3942 54.3617 96.1346C50.6533 94.9253 47.39 93.2375 44.5717 91.071C41.8028 88.9045 39.6272 86.3853 38.045 83.5134C36.4628 80.5911 35.6717 77.4673 35.6717 74.1419C35.6717 68.0959 38.5642 62.3521 44.3492 56.9106C50.1342 51.4691 58.5397 46.5567 69.5658 42.1733C72.9775 40.8129 76.2408 39.6037 79.3558 38.5456C82.5203 37.4372 85.3386 36.4043 87.8108 35.447C90.3325 34.4897 92.3103 33.5072 93.7442 32.4995C95.1781 31.4919 95.895 30.3582 95.895 29.0986C95.895 28.4436 95.6725 27.9146 95.2275 27.5115C94.7825 27.1084 94.1892 26.9069 93.4475 26.9069C91.6675 26.9069 89.7886 27.7382 87.8108 29.4009C85.8331 31.0636 83.88 33.2805 81.9517 36.0516C80.0728 38.8227 78.3669 41.9213 76.8342 45.3475C75.3014 48.7736 74.0653 52.2753 73.1258 55.8525C72.2358 59.4298 71.7908 62.8307 71.7908 66.0553C71.7908 69.9349 72.5572 73.3862 74.09 76.4092C75.6228 79.4323 77.7242 81.8003 80.3942 83.5134C83.0642 85.2264 86.105 86.0829 89.5167 86.0829C92.5328 86.0829 95.4006 85.3776 98.12 83.9668C100.839 82.6064 103.238 80.717 105.314 78.2986C107.391 75.8802 109.023 73.1343 110.209 70.0608C111.445 66.937 112.063 63.6369 112.063 60.1604C112.063 54.5174 110.629 49.6301 107.762 45.4986C104.943 41.3167 100.938 38.067 95.7467 35.7493C90.6045 33.4316 84.5722 32.2728 77.65 32.2728C71.865 32.2728 66.3767 32.9782 61.185 34.3889C55.9933 35.7493 51.2467 37.7143 46.945 40.2839C42.6433 42.8031 38.9103 45.8009 35.7458 49.2774C32.5814 52.7035 30.1339 56.5075 28.4033 60.6894C26.6728 64.8209 25.8075 69.2043 25.8075 73.8396C25.8075 78.6765 26.7717 83.1355 28.7 87.2166C30.6283 91.2977 33.3231 94.8498 36.7842 97.8728C40.2947 100.946 44.3986 103.314 49.0958 104.977C53.7931 106.69 58.9106 107.547 64.4483 107.547C67.1183 107.547 69.7883 107.194 72.4583 106.488C75.1283 105.833 77.5511 104.927 79.7267 103.768C81.9517 102.659 83.6081 101.4 84.6958 99.9889L84.9925 100.291C83.8553 101.702 82.1742 102.987 79.9492 104.146C77.7736 105.355 75.3261 106.287 72.6067 106.942C69.8872 107.647 67.1678 108 64.4483 108C58.7622 108 53.4717 107.118 48.5767 105.355C43.6817 103.642 39.4047 101.223 35.7458 98.0995C32.1364 95.0261 29.3181 91.3985 27.2908 87.2166C25.2636 83.0851 24.25 78.5757 24.25 73.6885C24.25 69.0532 25.14 64.6445 26.92 60.4627C28.7 56.2304 31.1969 52.376 34.4108 48.8995C37.6742 45.423 41.5308 42.4252 45.9808 39.906C50.4308 37.3364 55.3258 35.3462 60.6658 33.9355C66.0058 32.5247 71.6425 31.8193 77.5758 31.8193C84.7947 31.8193 91.0742 33.0034 96.4142 35.3714C101.754 37.6891 105.883 40.9641 108.8 45.1963C111.767 49.4286 113.25 54.4166 113.25 60.1604C113.25 63.6873 112.607 67.0378 111.322 70.212C110.036 73.3862 108.281 76.2077 106.056 78.6765C103.88 81.0949 101.359 83.0095 98.4908 84.4203C95.6725 85.831 92.6811 86.5364 89.5167 86.5364C86.0061 86.5364 82.8664 85.6547 80.0975 83.8912C77.3286 82.1278 75.1531 79.7094 73.5708 76.6359C72.0381 73.5625 71.2717 70.0356 71.2717 66.0553C71.2717 62.73 71.7414 59.2283 72.6808 55.5502C73.6697 51.8722 74.98 48.2949 76.6117 44.8184C78.2433 41.3419 80.0481 38.1929 82.0258 35.3714C84.0531 32.4995 86.105 30.2323 88.1817 28.5696C90.3078 26.8565 92.3103 26 94.1892 26C96.1669 26 97.1558 26.8313 97.1558 28.494C97.1558 29.6025 96.6614 30.6353 95.6725 31.5926C94.6836 32.4995 93.2992 33.3813 91.5192 34.2378C89.7392 35.0943 87.6872 35.9508 85.3633 36.8074C83.0889 37.6639 80.6414 38.5708 78.0208 39.5281C75.4003 40.4854 72.7303 41.5435 70.0108 42.7023Z" />
<path d="M20.2045 71.1257V73H0V71.1257C7.03195 70.5338 8.31949 68.9554 8.31949 61.9514V14.6986C8.31949 6.01757 5.15016 2.46621 0 1.87432V0H14.5591L50.115 54.1581V13.0216C50.115 5.12973 48.1342 2.36756 41.7955 1.87432V0H62V1.87432C55.6613 2.46621 53.5815 5.22838 53.5815 13.0216V73H50.115V72.8027L11.7859 14.5013V61.9514C11.7859 68.9554 13.1725 70.4351 20.2045 71.1257Z" />
<path d="M106.933 54C126.356 54 137 70.1632 137 96.7013C137 120.946 124.271 137 105.067 137C85.315 137 75 120.837 75 94.4079C75 70.054 87.5097 54 106.933 54ZM107.701 133.178C117.796 133.178 125.807 124.55 125.807 104.018C125.807 80.4289 119.333 57.8224 103.641 57.8224C93.2159 57.8224 86.5221 66.5592 86.5221 86.7632C86.5221 111.008 92.777 133.178 107.701 133.178Z" />
</svg>
